<svg width="385" height="385" viewBox="0 0 385 385" fill="none" xmlns="http://www.w3.org/2000/svg">
<rect width="385" height="385" rx="10" fill="white"/>
<path d="M53.0105 278.728C55.6745 278.728 58.0025 279.256 59.9945 280.312C61.9865 281.368 63.5225 282.856 64.6025 284.776C65.7065 286.672 66.2585 288.868 66.2585 291.364C66.2585 293.836 65.7065 296.032 64.6025 297.952C63.5225 299.872 61.9745 301.36 59.9585 302.416C57.9665 303.472 55.6505 304 53.0105 304H43.5425V278.728H53.0105ZM52.6145 298.672C54.9425 298.672 56.7545 298.036 58.0505 296.764C59.3465 295.492 59.9945 293.692 59.9945 291.364C59.9945 289.036 59.3465 287.224 58.0505 285.928C56.7545 284.632 54.9425 283.984 52.6145 283.984H49.6985V298.672H52.6145ZM72.7948 281.824C71.7148 281.824 70.8268 281.512 70.1308 280.888C69.4588 280.24 69.1228 279.448 69.1228 278.512C69.1228 277.552 69.4588 276.76 70.1308 276.136C70.8268 275.488 71.7148 275.164 72.7948 275.164C73.8508 275.164 74.7148 275.488 75.3868 276.136C76.0828 276.76 76.4308 277.552 76.4308 278.512C76.4308 279.448 76.0828 280.24 75.3868 280.888C74.7148 281.512 73.8508 281.824 72.7948 281.824ZM75.8548 283.912V304H69.6988V283.912H75.8548ZM88.488 304.288C86.736 304.288 85.176 303.988 83.808 303.388C82.44 302.788 81.36 301.972 80.568 300.94C79.776 299.884 79.332 298.708 79.236 297.412H85.32C85.392 298.108 85.716 298.672 86.292 299.104C86.868 299.536 87.576 299.752 88.416 299.752C89.184 299.752 89.772 299.608 90.18 299.32C90.612 299.008 90.828 298.612 90.828 298.132C90.828 297.556 90.528 297.136 89.928 296.872C89.328 296.584 88.356 296.272 87.012 295.936C85.572 295.6 84.372 295.252 83.412 294.892C82.452 294.508 81.624 293.92 80.928 293.128C80.232 292.312 79.884 291.22 79.884 289.852C79.884 288.7 80.196 287.656 80.82 286.72C81.468 285.76 82.404 285.004 83.628 284.452C84.876 283.9 86.352 283.624 88.056 283.624C90.576 283.624 92.556 284.248 93.996 285.496C95.46 286.744 96.3 288.4 96.516 290.464H90.828C90.732 289.768 90.42 289.216 89.892 288.808C89.388 288.4 88.716 288.196 87.876 288.196C87.156 288.196 86.604 288.34 86.22 288.628C85.836 288.892 85.644 289.264 85.644 289.744C85.644 290.32 85.944 290.752 86.544 291.04C87.168 291.328 88.128 291.616 89.424 291.904C90.912 292.288 92.124 292.672 93.06 293.056C93.996 293.416 94.812 294.016 95.508 294.856C96.228 295.672 96.6 296.776 96.624 298.168C96.624 299.344 96.288 300.4 95.616 301.336C94.968 302.248 94.02 302.968 92.772 303.496C91.548 304.024 90.12 304.288 88.488 304.288ZM99.1662 293.956C99.1662 291.868 99.5862 290.044 100.426 288.484C101.29 286.924 102.478 285.724 103.99 284.884C105.526 284.044 107.278 283.624 109.246 283.624C111.766 283.624 113.866 284.284 115.546 285.604C117.25 286.924 118.366 288.784 118.894 291.184H112.342C111.79 289.648 110.722 288.88 109.138 288.88C108.01 288.88 107.11 289.324 106.438 290.212C105.766 291.076 105.43 292.324 105.43 293.956C105.43 295.588 105.766 296.848 106.438 297.736C107.11 298.6 108.01 299.032 109.138 299.032C110.722 299.032 111.79 298.264 112.342 296.728H118.894C118.366 299.08 117.25 300.928 115.546 302.272C113.842 303.616 111.742 304.288 109.246 304.288C107.278 304.288 105.526 303.868 103.99 303.028C102.478 302.188 101.29 300.988 100.426 299.428C99.5862 297.868 99.1662 296.044 99.1662 293.956ZM134.535 283.696C136.839 283.696 138.687 284.464 140.079 286C141.471 287.512 142.167 289.6 142.167 292.264V304H136.047V293.092C136.047 291.748 135.699 290.704 135.003 289.96C134.307 289.216 133.371 288.844 132.195 288.844C131.019 288.844 130.083 289.216 129.387 289.96C128.691 290.704 128.343 291.748 128.343 293.092V304H122.187V277.36H128.343V286.612C128.967 285.724 129.819 285.016 130.899 284.488C131.979 283.96 133.191 283.696 134.535 283.696ZM145.221 293.92C145.221 291.856 145.605 290.044 146.373 288.484C147.165 286.924 148.233 285.724 149.577 284.884C150.921 284.044 152.421 283.624 154.077 283.624C155.493 283.624 156.729 283.912 157.785 284.488C158.865 285.064 159.693 285.82 160.269 286.756V283.912H166.425V304H160.269V301.156C159.669 302.092 158.829 302.848 157.749 303.424C156.693 304 155.457 304.288 154.041 304.288C152.409 304.288 150.921 303.868 149.577 303.028C148.233 302.164 147.165 300.952 146.373 299.392C145.605 297.808 145.221 295.984 145.221 293.92ZM160.269 293.956C160.269 292.42 159.837 291.208 158.973 290.32C158.133 289.432 157.101 288.988 155.877 288.988C154.653 288.988 153.609 289.432 152.745 290.32C151.905 291.184 151.485 292.384 151.485 293.92C151.485 295.456 151.905 296.68 152.745 297.592C153.609 298.48 154.653 298.924 155.877 298.924C157.101 298.924 158.133 298.48 158.973 297.592C159.837 296.704 160.269 295.492 160.269 293.956ZM177.034 287.26C177.754 286.156 178.654 285.292 179.734 284.668C180.814 284.02 182.014 283.696 183.334 283.696V290.212H181.642C180.106 290.212 178.954 290.548 178.186 291.22C177.418 291.868 177.034 293.02 177.034 294.676V304H170.878V283.912H177.034V287.26ZM193.909 283.624C195.325 283.624 196.561 283.912 197.617 284.488C198.697 285.064 199.525 285.82 200.101 286.756V283.912H206.257V303.964C206.257 305.812 205.885 307.48 205.141 308.968C204.421 310.48 203.305 311.68 201.793 312.568C200.305 313.456 198.445 313.9 196.213 313.9C193.237 313.9 190.825 313.192 188.977 311.776C187.129 310.384 186.073 308.488 185.809 306.088H191.893C192.085 306.856 192.541 307.456 193.261 307.888C193.981 308.344 194.869 308.572 195.925 308.572C197.197 308.572 198.205 308.2 198.949 307.456C199.717 306.736 200.101 305.572 200.101 303.964V301.12C199.501 302.056 198.673 302.824 197.617 303.424C196.561 304 195.325 304.288 193.909 304.288C192.253 304.288 190.753 303.868 189.409 303.028C188.065 302.164 186.997 300.952 186.205 299.392C185.437 297.808 185.053 295.984 185.053 293.92C185.053 291.856 185.437 290.044 186.205 288.484C186.997 286.924 188.065 285.724 189.409 284.884C190.753 284.044 192.253 283.624 193.909 283.624ZM200.101 293.956C200.101 292.42 199.669 291.208 198.805 290.32C197.965 289.432 196.933 288.988 195.709 288.988C194.485 288.988 193.441 289.432 192.577 290.32C191.737 291.184 191.317 292.384 191.317 293.92C191.317 295.456 191.737 296.68 192.577 297.592C193.441 298.48 194.485 298.924 195.709 298.924C196.933 298.924 197.965 298.48 198.805 297.592C199.669 296.704 200.101 295.492 200.101 293.956ZM229.647 293.632C229.647 294.208 229.611 294.808 229.539 295.432H215.607C215.703 296.68 216.099 297.64 216.795 298.312C217.515 298.96 218.391 299.284 219.423 299.284C220.959 299.284 222.027 298.636 222.627 297.34H229.179C228.843 298.66 228.231 299.848 227.343 300.904C226.479 301.96 225.387 302.788 224.067 303.388C222.747 303.988 221.271 304.288 219.639 304.288C217.671 304.288 215.919 303.868 214.383 303.028C212.847 302.188 211.647 300.988 210.783 299.428C209.919 297.868 209.487 296.044 209.487 293.956C209.487 291.868 209.907 290.044 210.747 288.484C211.611 286.924 212.811 285.724 214.347 284.884C215.883 284.044 217.647 283.624 219.639 283.624C221.583 283.624 223.311 284.032 224.823 284.848C226.335 285.664 227.511 286.828 228.351 288.34C229.215 289.852 229.647 291.616 229.647 293.632ZM223.347 292.012C223.347 290.956 222.987 290.116 222.267 289.492C221.547 288.868 220.647 288.556 219.567 288.556C218.535 288.556 217.659 288.856 216.939 289.456C216.243 290.056 215.811 290.908 215.643 292.012H223.347ZM249.667 304.252C247.819 304.252 246.163 303.952 244.699 303.352C243.235 302.752 242.059 301.864 241.171 300.688C240.307 299.512 239.851 298.096 239.803 296.44H246.355C246.451 297.376 246.775 298.096 247.327 298.6C247.879 299.08 248.599 299.32 249.487 299.32C250.399 299.32 251.119 299.116 251.647 298.708C252.175 298.276 252.439 297.688 252.439 296.944C252.439 296.32 252.223 295.804 251.791 295.396C251.383 294.988 250.867 294.652 250.243 294.388C249.643 294.124 248.779 293.824 247.651 293.488C246.019 292.984 244.687 292.48 243.655 291.976C242.623 291.472 241.735 290.728 240.991 289.744C240.247 288.76 239.875 287.476 239.875 285.892C239.875 283.54 240.727 281.704 242.431 280.384C244.135 279.04 246.355 278.368 249.091 278.368C251.875 278.368 254.119 279.04 255.823 280.384C257.527 281.704 258.439 283.552 258.559 285.928H251.899C251.851 285.112 251.551 284.476 250.999 284.02C250.447 283.54 249.739 283.3 248.875 283.3C248.131 283.3 247.531 283.504 247.075 283.912C246.619 284.296 246.391 284.86 246.391 285.604C246.391 286.42 246.775 287.056 247.543 287.512C248.311 287.968 249.511 288.46 251.143 288.988C252.775 289.54 254.095 290.068 255.103 290.572C256.135 291.076 257.023 291.808 257.767 292.768C258.511 293.728 258.883 294.964 258.883 296.476C258.883 297.916 258.511 299.224 257.767 300.4C257.047 301.576 255.991 302.512 254.599 303.208C253.207 303.904 251.563 304.252 249.667 304.252ZM275.019 283.696C277.323 283.696 279.171 284.464 280.563 286C281.955 287.512 282.651 289.6 282.651 292.264V304H276.531V293.092C276.531 291.748 276.183 290.704 275.487 289.96C274.791 289.216 273.855 288.844 272.679 288.844C271.503 288.844 270.567 289.216 269.871 289.96C269.175 290.704 268.827 291.748 268.827 293.092V304H262.671V277.36H268.827V286.612C269.451 285.724 270.303 285.016 271.383 284.488C272.463 283.96 273.675 283.696 275.019 283.696ZM305.865 293.632C305.865 294.208 305.829 294.808 305.757 295.432H291.825C291.921 296.68 292.317 297.64 293.013 298.312C293.733 298.96 294.609 299.284 295.641 299.284C297.177 299.284 298.245 298.636 298.845 297.34H305.397C305.061 298.66 304.449 299.848 303.561 300.904C302.697 301.96 301.605 302.788 300.285 303.388C298.965 303.988 297.489 304.288 295.857 304.288C293.889 304.288 292.137 303.868 290.601 303.028C289.065 302.188 287.865 300.988 287.001 299.428C286.137 297.868 285.705 296.044 285.705 293.956C285.705 291.868 286.125 290.044 286.965 288.484C287.829 286.924 289.029 285.724 290.565 284.884C292.101 284.044 293.865 283.624 295.857 283.624C297.801 283.624 299.529 284.032 301.041 284.848C302.553 285.664 303.729 286.828 304.569 288.34C305.433 289.852 305.865 291.616 305.865 293.632ZM299.565 292.012C299.565 290.956 299.205 290.116 298.485 289.492C297.765 288.868 296.865 288.556 295.785 288.556C294.753 288.556 293.877 288.856 293.157 289.456C292.461 290.056 292.029 290.908 291.861 292.012H299.565ZM328.049 293.632C328.049 294.208 328.013 294.808 327.941 295.432H314.009C314.105 296.68 314.501 297.64 315.197 298.312C315.917 298.96 316.793 299.284 317.825 299.284C319.361 299.284 320.429 298.636 321.029 297.34H327.581C327.245 298.66 326.633 299.848 325.745 300.904C324.881 301.96 323.789 302.788 322.469 303.388C321.149 303.988 319.673 304.288 318.041 304.288C316.073 304.288 314.321 303.868 312.785 303.028C311.249 302.188 310.049 300.988 309.185 299.428C308.321 297.868 307.889 296.044 307.889 293.956C307.889 291.868 308.309 290.044 309.149 288.484C310.013 286.924 311.213 285.724 312.749 284.884C314.285 284.044 316.049 283.624 318.041 283.624C319.985 283.624 321.713 284.032 323.225 284.848C324.737 285.664 325.913 286.828 326.753 288.34C327.617 289.852 328.049 291.616 328.049 293.632ZM321.749 292.012C321.749 290.956 321.389 290.116 320.669 289.492C319.949 288.868 319.049 288.556 317.969 288.556C316.937 288.556 316.061 288.856 315.341 289.456C314.645 290.056 314.213 290.908 314.045 292.012H321.749ZM342.492 298.78V304H339.36C337.128 304 335.388 303.46 334.14 302.38C332.892 301.276 332.268 299.488 332.268 297.016V289.024H329.82V283.912H332.268V279.016H338.424V283.912H342.456V289.024H338.424V297.088C338.424 297.688 338.568 298.12 338.856 298.384C339.144 298.648 339.624 298.78 340.296 298.78H342.492ZM107.358 340.72C106.902 339.88 106.242 339.244 105.378 338.812C104.538 338.356 103.542 338.128 102.39 338.128C100.398 338.128 98.8016 338.788 97.6016 340.108C96.4016 341.404 95.8016 343.144 95.8016 345.328C95.8016 347.656 96.4256 349.48 97.6736 350.8C98.9456 352.096 100.686 352.744 102.894 352.744C104.406 352.744 105.678 352.36 106.71 351.592C107.766 350.824 108.534 349.72 109.014 348.28H101.202V343.744H114.594V349.468C114.138 351.004 113.358 352.432 112.254 353.752C111.174 355.072 109.794 356.14 108.114 356.956C106.434 357.772 104.538 358.18 102.426 358.18C99.9296 358.18 97.6976 357.64 95.7296 356.56C93.7856 355.456 92.2616 353.932 91.1576 351.988C90.0776 350.044 89.5376 347.824 89.5376 345.328C89.5376 342.832 90.0776 340.612 91.1576 338.668C92.2616 336.7 93.7856 335.176 95.7296 334.096C97.6736 332.992 99.8936 332.44 102.39 332.44C105.414 332.44 107.958 333.172 110.022 334.636C112.11 336.1 113.49 338.128 114.162 340.72H107.358ZM136.939 347.632C136.939 348.208 136.903 348.808 136.831 349.432H122.899C122.995 350.68 123.391 351.64 124.087 352.312C124.807 352.96 125.683 353.284 126.715 353.284C128.251 353.284 129.319 352.636 129.919 351.34H136.471C136.135 352.66 135.523 353.848 134.635 354.904C133.771 355.96 132.679 356.788 131.359 357.388C130.039 357.988 128.563 358.288 126.931 358.288C124.963 358.288 123.211 357.868 121.675 357.028C120.139 356.188 118.939 354.988 118.075 353.428C117.211 351.868 116.779 350.044 116.779 347.956C116.779 345.868 117.199 344.044 118.039 342.484C118.903 340.924 120.103 339.724 121.639 338.884C123.175 338.044 124.939 337.624 126.931 337.624C128.875 337.624 130.603 338.032 132.115 338.848C133.627 339.664 134.803 340.828 135.643 342.34C136.507 343.852 136.939 345.616 136.939 347.632ZM130.639 346.012C130.639 344.956 130.279 344.116 129.559 343.492C128.839 342.868 127.939 342.556 126.859 342.556C125.827 342.556 124.951 342.856 124.231 343.456C123.535 344.056 123.103 344.908 122.935 346.012H130.639ZM152.427 337.696C154.779 337.696 156.651 338.464 158.043 340C159.459 341.512 160.167 343.6 160.167 346.264V358H154.047V347.092C154.047 345.748 153.699 344.704 153.003 343.96C152.307 343.216 151.371 342.844 150.195 342.844C149.019 342.844 148.083 343.216 147.387 343.96C146.691 344.704 146.343 345.748 146.343 347.092V358H140.187V337.912H146.343V340.576C146.967 339.688 147.807 338.992 148.863 338.488C149.919 337.96 151.107 337.696 152.427 337.696ZM183.381 347.632C183.381 348.208 183.345 348.808 183.273 349.432H169.341C169.437 350.68 169.833 351.64 170.529 352.312C171.249 352.96 172.125 353.284 173.157 353.284C174.693 353.284 175.761 352.636 176.361 351.34H182.913C182.577 352.66 181.965 353.848 181.077 354.904C180.213 355.96 179.121 356.788 177.801 357.388C176.481 357.988 175.005 358.288 173.373 358.288C171.405 358.288 169.653 357.868 168.117 357.028C166.581 356.188 165.381 354.988 164.517 353.428C163.653 351.868 163.221 350.044 163.221 347.956C163.221 345.868 163.641 344.044 164.481 342.484C165.345 340.924 166.545 339.724 168.081 338.884C169.617 338.044 171.381 337.624 173.373 337.624C175.317 337.624 177.045 338.032 178.557 338.848C180.069 339.664 181.245 340.828 182.085 342.34C182.949 343.852 183.381 345.616 183.381 347.632ZM177.081 346.012C177.081 344.956 176.721 344.116 176.001 343.492C175.281 342.868 174.381 342.556 173.301 342.556C172.269 342.556 171.393 342.856 170.673 343.456C169.977 344.056 169.545 344.908 169.377 346.012H177.081ZM192.784 341.26C193.504 340.156 194.404 339.292 195.484 338.668C196.564 338.02 197.764 337.696 199.084 337.696V344.212H197.392C195.856 344.212 194.704 344.548 193.936 345.22C193.168 345.868 192.784 347.02 192.784 348.676V358H186.628V337.912H192.784V341.26ZM200.803 347.92C200.803 345.856 201.187 344.044 201.955 342.484C202.747 340.924 203.815 339.724 205.159 338.884C206.503 338.044 208.003 337.624 209.659 337.624C211.075 337.624 212.311 337.912 213.367 338.488C214.447 339.064 215.275 339.82 215.851 340.756V337.912H222.007V358H215.851V355.156C215.251 356.092 214.411 356.848 213.331 357.424C212.275 358 211.039 358.288 209.623 358.288C207.991 358.288 206.503 357.868 205.159 357.028C203.815 356.164 202.747 354.952 201.955 353.392C201.187 351.808 200.803 349.984 200.803 347.92ZM215.851 347.956C215.851 346.42 215.419 345.208 214.555 344.32C213.715 343.432 212.683 342.988 211.459 342.988C210.235 342.988 209.191 343.432 208.327 344.32C207.487 345.184 207.067 346.384 207.067 347.92C207.067 349.456 207.487 350.68 208.327 351.592C209.191 352.48 210.235 352.924 211.459 352.924C212.683 352.924 213.715 352.48 214.555 351.592C215.419 350.704 215.851 349.492 215.851 347.956ZM237.657 352.78V358H234.525C232.293 358 230.553 357.46 229.305 356.38C228.057 355.276 227.433 353.488 227.433 351.016V343.024H224.985V337.912H227.433V333.016H233.589V337.912H237.621V343.024H233.589V351.088C233.589 351.688 233.733 352.12 234.021 352.384C234.309 352.648 234.789 352.78 235.461 352.78H237.657ZM244.182 335.824C243.102 335.824 242.214 335.512 241.518 334.888C240.846 334.24 240.51 333.448 240.51 332.512C240.51 331.552 240.846 330.76 241.518 330.136C242.214 329.488 243.102 329.164 244.182 329.164C245.238 329.164 246.102 329.488 246.774 330.136C247.47 330.76 247.818 331.552 247.818 332.512C247.818 333.448 247.47 334.24 246.774 334.888C246.102 335.512 245.238 335.824 244.182 335.824ZM247.242 337.912V358H241.086V337.912H247.242ZM260.847 358.288C258.879 358.288 257.103 357.868 255.519 357.028C253.959 356.188 252.723 354.988 251.811 353.428C250.923 351.868 250.479 350.044 250.479 347.956C250.479 345.892 250.935 344.08 251.847 342.52C252.759 340.936 254.007 339.724 255.591 338.884C257.175 338.044 258.951 337.624 260.919 337.624C262.887 337.624 264.663 338.044 266.247 338.884C267.831 339.724 269.079 340.936 269.991 342.52C270.903 344.08 271.359 345.892 271.359 347.956C271.359 350.02 270.891 351.844 269.955 353.428C269.043 354.988 267.783 356.188 266.175 357.028C264.591 357.868 262.815 358.288 260.847 358.288ZM260.847 352.96C262.023 352.96 263.019 352.528 263.835 351.664C264.675 350.8 265.095 349.564 265.095 347.956C265.095 346.348 264.687 345.112 263.871 344.248C263.079 343.384 262.095 342.952 260.919 342.952C259.719 342.952 258.723 343.384 257.931 344.248C257.139 345.088 256.743 346.324 256.743 347.956C256.743 349.564 257.127 350.8 257.895 351.664C258.687 352.528 259.671 352.96 260.847 352.96ZM286.865 337.696C289.217 337.696 291.089 338.464 292.481 340C293.897 341.512 294.605 343.6 294.605 346.264V358H288.485V347.092C288.485 345.748 288.137 344.704 287.441 343.96C286.745 343.216 285.809 342.844 284.633 342.844C283.457 342.844 282.521 343.216 281.825 343.96C281.129 344.704 280.781 345.748 280.781 347.092V358H274.625V337.912H280.781V340.576C281.405 339.688 282.245 338.992 283.301 338.488C284.357 337.96 285.545 337.696 286.865 337.696Z" fill="black"/>
<g clip-path="url(#clip0)">
<path d="M262.243 92.1893L218.651 48.5966C217.633 47.5787 216.244 47 214.797 47H138.508C129.494 47 122.16 54.3336 122.16 63.3477V216.652C122.16 225.666 129.494 233 138.508 233H247.492C256.506 233 263.84 225.666 263.84 216.652V96.043C263.84 94.5571 263.216 93.1618 262.243 92.1893ZM220.246 65.6047L245.235 90.5938H225.695C222.691 90.5938 220.246 88.1492 220.246 85.1445V65.6047ZM247.492 222.102H138.508C135.503 222.102 133.059 219.657 133.059 216.652V63.3477C133.059 60.343 135.503 57.8984 138.508 57.8984H209.348V85.1445C209.348 94.1586 216.681 101.492 225.695 101.492H252.941V216.652C252.941 219.657 250.497 222.102 247.492 222.102Z" fill="black"/>
<path d="M225.695 124.016H160.305C157.295 124.016 154.855 126.455 154.855 129.465C154.855 132.474 157.295 134.914 160.305 134.914H225.695C228.705 134.914 231.145 132.474 231.145 129.465C231.145 126.455 228.705 124.016 225.695 124.016Z" fill="black"/>
<path d="M225.695 145.812H160.305C157.295 145.812 154.855 148.252 154.855 151.262C154.855 154.271 157.295 156.711 160.305 156.711H225.695C228.705 156.711 231.145 154.271 231.145 151.262C231.145 148.252 228.705 145.812 225.695 145.812Z" fill="black"/>
<path d="M225.695 167.609H160.305C157.295 167.609 154.855 170.049 154.855 173.059C154.855 176.068 157.295 178.508 160.305 178.508H225.695C228.705 178.508 231.145 176.068 231.145 173.059C231.145 170.049 228.705 167.609 225.695 167.609Z" fill="black"/>
<path d="M203.898 189.406H160.305C157.295 189.406 154.855 191.846 154.855 194.855C154.855 197.865 157.295 200.305 160.305 200.305H203.898C206.908 200.305 209.348 197.865 209.348 194.855C209.348 191.846 206.908 189.406 203.898 189.406Z" fill="black"/>
</g>
<defs>
<clipPath id="clip0">
<rect width="186" height="186" fill="white" transform="translate(100 47)"/>
</clipPath>
</defs>
</svg>
