<svg width="385" height="385" viewBox="0 0 385 385" fill="none" xmlns="http://www.w3.org/2000/svg">
<rect width="385" height="385" rx="10" fill="white"/>
<path d="M147.388 286.864C147.388 288.328 147.052 289.672 146.38 290.896C145.708 292.096 144.676 293.068 143.284 293.812C141.892 294.556 140.164 294.928 138.1 294.928H134.284V304H128.128V278.728H138.1C140.116 278.728 141.82 279.076 143.212 279.772C144.604 280.468 145.648 281.428 146.344 282.652C147.04 283.876 147.388 285.28 147.388 286.864ZM137.632 290.032C138.808 290.032 139.684 289.756 140.26 289.204C140.836 288.652 141.124 287.872 141.124 286.864C141.124 285.856 140.836 285.076 140.26 284.524C139.684 283.972 138.808 283.696 137.632 283.696H134.284V290.032H137.632ZM149.369 293.92C149.369 291.856 149.753 290.044 150.521 288.484C151.313 286.924 152.381 285.724 153.725 284.884C155.069 284.044 156.569 283.624 158.225 283.624C159.641 283.624 160.877 283.912 161.933 284.488C163.013 285.064 163.841 285.82 164.417 286.756V283.912H170.573V304H164.417V301.156C163.817 302.092 162.977 302.848 161.897 303.424C160.841 304 159.605 304.288 158.189 304.288C156.557 304.288 155.069 303.868 153.725 303.028C152.381 302.164 151.313 300.952 150.521 299.392C149.753 297.808 149.369 295.984 149.369 293.92ZM164.417 293.956C164.417 292.42 163.985 291.208 163.121 290.32C162.281 289.432 161.249 288.988 160.025 288.988C158.801 288.988 157.757 289.432 156.893 290.32C156.053 291.184 155.633 292.384 155.633 293.92C155.633 295.456 156.053 296.68 156.893 297.592C157.757 298.48 158.801 298.924 160.025 298.924C161.249 298.924 162.281 298.48 163.121 297.592C163.985 296.704 164.417 295.492 164.417 293.956ZM186.223 298.78V304H183.091C180.859 304 179.119 303.46 177.871 302.38C176.623 301.276 175.999 299.488 175.999 297.016V289.024H173.551V283.912H175.999V279.016H182.155V283.912H186.187V289.024H182.155V297.088C182.155 297.688 182.299 298.12 182.587 298.384C182.875 298.648 183.355 298.78 184.027 298.78H186.223ZM192.748 281.824C191.668 281.824 190.78 281.512 190.084 280.888C189.412 280.24 189.076 279.448 189.076 278.512C189.076 277.552 189.412 276.76 190.084 276.136C190.78 275.488 191.668 275.164 192.748 275.164C193.804 275.164 194.668 275.488 195.34 276.136C196.036 276.76 196.384 277.552 196.384 278.512C196.384 279.448 196.036 280.24 195.34 280.888C194.668 281.512 193.804 281.824 192.748 281.824ZM195.808 283.912V304H189.652V283.912H195.808ZM219.205 293.632C219.205 294.208 219.169 294.808 219.097 295.432H205.165C205.261 296.68 205.657 297.64 206.353 298.312C207.073 298.96 207.949 299.284 208.981 299.284C210.517 299.284 211.585 298.636 212.185 297.34H218.737C218.401 298.66 217.789 299.848 216.901 300.904C216.037 301.96 214.945 302.788 213.625 303.388C212.305 303.988 210.829 304.288 209.197 304.288C207.229 304.288 205.477 303.868 203.941 303.028C202.405 302.188 201.205 300.988 200.341 299.428C199.477 297.868 199.045 296.044 199.045 293.956C199.045 291.868 199.465 290.044 200.305 288.484C201.169 286.924 202.369 285.724 203.905 284.884C205.441 284.044 207.205 283.624 209.197 283.624C211.141 283.624 212.869 284.032 214.381 284.848C215.893 285.664 217.069 286.828 217.909 288.34C218.773 289.852 219.205 291.616 219.205 293.632ZM212.905 292.012C212.905 290.956 212.545 290.116 211.825 289.492C211.105 288.868 210.205 288.556 209.125 288.556C208.093 288.556 207.217 288.856 206.497 289.456C205.801 290.056 205.369 290.908 205.201 292.012H212.905ZM234.693 283.696C237.045 283.696 238.917 284.464 240.309 286C241.725 287.512 242.433 289.6 242.433 292.264V304H236.313V293.092C236.313 291.748 235.965 290.704 235.269 289.96C234.573 289.216 233.637 288.844 232.461 288.844C231.285 288.844 230.349 289.216 229.653 289.96C228.957 290.704 228.609 291.748 228.609 293.092V304H222.453V283.912H228.609V286.576C229.233 285.688 230.073 284.992 231.129 284.488C232.185 283.96 233.373 283.696 234.693 283.696ZM257.907 298.78V304H254.775C252.543 304 250.803 303.46 249.555 302.38C248.307 301.276 247.683 299.488 247.683 297.016V289.024H245.235V283.912H247.683V279.016H253.839V283.912H257.871V289.024H253.839V297.088C253.839 297.688 253.983 298.12 254.271 298.384C254.559 298.648 255.039 298.78 255.711 298.78H257.907ZM97.3696 332.728V358H91.2136V342.844L85.5616 358H80.5936L74.9056 342.808V358H68.7496V332.728H76.0216L83.1136 350.224L90.1336 332.728H97.3696ZM100.572 347.92C100.572 345.856 100.956 344.044 101.724 342.484C102.516 340.924 103.584 339.724 104.928 338.884C106.272 338.044 107.772 337.624 109.428 337.624C110.844 337.624 112.08 337.912 113.136 338.488C114.216 339.064 115.044 339.82 115.62 340.756V337.912H121.776V358H115.62V355.156C115.02 356.092 114.18 356.848 113.1 357.424C112.044 358 110.808 358.288 109.392 358.288C107.76 358.288 106.272 357.868 104.928 357.028C103.584 356.164 102.516 354.952 101.724 353.392C100.956 351.808 100.572 349.984 100.572 347.92ZM115.62 347.956C115.62 346.42 115.188 345.208 114.324 344.32C113.484 343.432 112.452 342.988 111.228 342.988C110.004 342.988 108.96 343.432 108.096 344.32C107.256 345.184 106.836 346.384 106.836 347.92C106.836 349.456 107.256 350.68 108.096 351.592C108.96 352.48 110.004 352.924 111.228 352.924C112.452 352.924 113.484 352.48 114.324 351.592C115.188 350.704 115.62 349.492 115.62 347.956ZM138.47 337.696C140.822 337.696 142.694 338.464 144.086 340C145.502 341.512 146.21 343.6 146.21 346.264V358H140.09V347.092C140.09 345.748 139.742 344.704 139.046 343.96C138.35 343.216 137.414 342.844 136.238 342.844C135.062 342.844 134.126 343.216 133.43 343.96C132.734 344.704 132.386 345.748 132.386 347.092V358H126.23V337.912H132.386V340.576C133.01 339.688 133.85 338.992 134.906 338.488C135.962 337.96 137.15 337.696 138.47 337.696ZM149.264 347.92C149.264 345.856 149.648 344.044 150.416 342.484C151.208 340.924 152.276 339.724 153.62 338.884C154.964 338.044 156.464 337.624 158.12 337.624C159.536 337.624 160.772 337.912 161.828 338.488C162.908 339.064 163.736 339.82 164.312 340.756V337.912H170.468V358H164.312V355.156C163.712 356.092 162.872 356.848 161.792 357.424C160.736 358 159.5 358.288 158.084 358.288C156.452 358.288 154.964 357.868 153.62 357.028C152.276 356.164 151.208 354.952 150.416 353.392C149.648 351.808 149.264 349.984 149.264 347.92ZM164.312 347.956C164.312 346.42 163.88 345.208 163.016 344.32C162.176 343.432 161.144 342.988 159.92 342.988C158.696 342.988 157.652 343.432 156.788 344.32C155.948 345.184 155.528 346.384 155.528 347.92C155.528 349.456 155.948 350.68 156.788 351.592C157.652 352.48 158.696 352.924 159.92 352.924C161.144 352.924 162.176 352.48 163.016 351.592C163.88 350.704 164.312 349.492 164.312 347.956ZM182.553 337.624C183.969 337.624 185.205 337.912 186.261 338.488C187.341 339.064 188.169 339.82 188.745 340.756V337.912H194.901V357.964C194.901 359.812 194.529 361.48 193.785 362.968C193.065 364.48 191.949 365.68 190.437 366.568C188.949 367.456 187.089 367.9 184.857 367.9C181.881 367.9 179.469 367.192 177.621 365.776C175.773 364.384 174.717 362.488 174.453 360.088H180.537C180.729 360.856 181.185 361.456 181.905 361.888C182.625 362.344 183.513 362.572 184.569 362.572C185.841 362.572 186.849 362.2 187.593 361.456C188.361 360.736 188.745 359.572 188.745 357.964V355.12C188.145 356.056 187.317 356.824 186.261 357.424C185.205 358 183.969 358.288 182.553 358.288C180.897 358.288 179.397 357.868 178.053 357.028C176.709 356.164 175.641 354.952 174.849 353.392C174.081 351.808 173.697 349.984 173.697 347.92C173.697 345.856 174.081 344.044 174.849 342.484C175.641 340.924 176.709 339.724 178.053 338.884C179.397 338.044 180.897 337.624 182.553 337.624ZM188.745 347.956C188.745 346.42 188.313 345.208 187.449 344.32C186.609 343.432 185.577 342.988 184.353 342.988C183.129 342.988 182.085 343.432 181.221 344.32C180.381 345.184 179.961 346.384 179.961 347.92C179.961 349.456 180.381 350.68 181.221 351.592C182.085 352.48 183.129 352.924 184.353 352.924C185.577 352.924 186.609 352.48 187.449 351.592C188.313 350.704 188.745 349.492 188.745 347.956ZM218.291 347.632C218.291 348.208 218.255 348.808 218.183 349.432H204.251C204.347 350.68 204.743 351.64 205.439 352.312C206.159 352.96 207.035 353.284 208.067 353.284C209.603 353.284 210.671 352.636 211.271 351.34H217.823C217.487 352.66 216.875 353.848 215.987 354.904C215.123 355.96 214.031 356.788 212.711 357.388C211.391 357.988 209.915 358.288 208.283 358.288C206.315 358.288 204.563 357.868 203.027 357.028C201.491 356.188 200.291 354.988 199.427 353.428C198.563 351.868 198.131 350.044 198.131 347.956C198.131 345.868 198.551 344.044 199.391 342.484C200.255 340.924 201.455 339.724 202.991 338.884C204.527 338.044 206.291 337.624 208.283 337.624C210.227 337.624 211.955 338.032 213.467 338.848C214.979 339.664 216.155 340.828 216.995 342.34C217.859 343.852 218.291 345.616 218.291 347.632ZM211.991 346.012C211.991 344.956 211.631 344.116 210.911 343.492C210.191 342.868 209.291 342.556 208.211 342.556C207.179 342.556 206.303 342.856 205.583 343.456C204.887 344.056 204.455 344.908 204.287 346.012H211.991ZM247.171 337.696C249.667 337.696 251.647 338.452 253.111 339.964C254.599 341.476 255.343 343.576 255.343 346.264V358H249.223V347.092C249.223 345.796 248.875 344.8 248.179 344.104C247.507 343.384 246.571 343.024 245.371 343.024C244.171 343.024 243.223 343.384 242.527 344.104C241.855 344.8 241.519 345.796 241.519 347.092V358H235.399V347.092C235.399 345.796 235.051 344.8 234.355 344.104C233.683 343.384 232.747 343.024 231.547 343.024C230.347 343.024 229.399 343.384 228.703 344.104C228.031 344.8 227.695 345.796 227.695 347.092V358H221.539V337.912H227.695V340.432C228.319 339.592 229.135 338.932 230.143 338.452C231.151 337.948 232.291 337.696 233.563 337.696C235.075 337.696 236.419 338.02 237.595 338.668C238.795 339.316 239.731 340.24 240.403 341.44C241.099 340.336 242.047 339.436 243.247 338.74C244.447 338.044 245.755 337.696 247.171 337.696ZM278.584 347.632C278.584 348.208 278.548 348.808 278.476 349.432H264.544C264.64 350.68 265.036 351.64 265.732 352.312C266.452 352.96 267.328 353.284 268.36 353.284C269.896 353.284 270.964 352.636 271.564 351.34H278.116C277.78 352.66 277.168 353.848 276.28 354.904C275.416 355.96 274.324 356.788 273.004 357.388C271.684 357.988 270.208 358.288 268.576 358.288C266.608 358.288 264.856 357.868 263.32 357.028C261.784 356.188 260.584 354.988 259.72 353.428C258.856 351.868 258.424 350.044 258.424 347.956C258.424 345.868 258.844 344.044 259.684 342.484C260.548 340.924 261.748 339.724 263.284 338.884C264.82 338.044 266.584 337.624 268.576 337.624C270.52 337.624 272.248 338.032 273.76 338.848C275.272 339.664 276.448 340.828 277.288 342.34C278.152 343.852 278.584 345.616 278.584 347.632ZM272.284 346.012C272.284 344.956 271.924 344.116 271.204 343.492C270.484 342.868 269.584 342.556 268.504 342.556C267.472 342.556 266.596 342.856 265.876 343.456C265.18 344.056 264.748 344.908 264.58 346.012H272.284ZM294.072 337.696C296.424 337.696 298.296 338.464 299.688 340C301.104 341.512 301.812 343.6 301.812 346.264V358H295.692V347.092C295.692 345.748 295.344 344.704 294.648 343.96C293.952 343.216 293.016 342.844 291.84 342.844C290.664 342.844 289.728 343.216 289.032 343.96C288.336 344.704 287.988 345.748 287.988 347.092V358H281.832V337.912H287.988V340.576C288.612 339.688 289.452 338.992 290.508 338.488C291.564 337.96 292.752 337.696 294.072 337.696ZM317.285 352.78V358H314.153C311.921 358 310.181 357.46 308.933 356.38C307.685 355.276 307.061 353.488 307.061 351.016V343.024H304.613V337.912H307.061V333.016H313.217V337.912H317.249V343.024H313.217V351.088C313.217 351.688 313.361 352.12 313.649 352.384C313.937 352.648 314.417 352.78 315.089 352.78H317.285Z" fill="black"/>
<path d="M270.636 58.3644C249.764 37.4942 222.016 26 192.5 26C162.984 26 135.236 37.4942 114.364 58.3644C93.4942 79.2355 82 106.984 82 136.5C82 166.016 93.4942 193.764 114.364 214.636C135.236 235.506 162.984 247 192.5 247C222.016 247 249.764 235.506 270.636 214.636C291.506 193.764 303 166.016 303 136.5C303 106.984 291.506 79.2355 270.636 58.3644ZM261.479 205.479C243.054 223.904 218.557 234.051 192.5 234.051C166.443 234.051 141.946 223.904 123.521 205.479C105.096 187.054 94.9492 162.557 94.9492 136.5C94.9492 110.443 105.096 85.9463 123.521 67.5212C141.946 49.0962 166.443 38.9492 192.5 38.9492C218.557 38.9492 243.054 49.0962 261.479 67.5212C279.904 85.9463 290.051 110.443 290.051 136.5C290.051 162.557 279.904 187.054 261.479 205.479Z" fill="black"/>
<path d="M219.806 109.194V71.0732H165.194V109.194H127.073V163.806H165.194V201.926H219.806V163.806H257.926V109.194H219.806ZM244.978 150.857H206.857V188.977H178.143V150.857H140.023V122.143H178.143V84.0224H206.857V122.143H244.978V150.857Z" fill="black"/>
</svg>
