<svg width="385" height="385" viewBox="0 0 385 385" fill="none" xmlns="http://www.w3.org/2000/svg">
<rect width="385" height="385" rx="10" fill="white"/>
<path d="M137.958 304L132.702 294.46H131.226V304H125.07V278.728H135.402C137.394 278.728 139.086 279.076 140.478 279.772C141.894 280.468 142.95 281.428 143.646 282.652C144.342 283.852 144.69 285.196 144.69 286.684C144.69 288.364 144.21 289.864 143.25 291.184C142.314 292.504 140.922 293.44 139.074 293.992L144.906 304H137.958ZM131.226 290.104H135.042C136.17 290.104 137.01 289.828 137.562 289.276C138.138 288.724 138.426 287.944 138.426 286.936C138.426 285.976 138.138 285.22 137.562 284.668C137.01 284.116 136.17 283.84 135.042 283.84H131.226V290.104ZM167.49 293.632C167.49 294.208 167.454 294.808 167.382 295.432H153.45C153.546 296.68 153.942 297.64 154.638 298.312C155.358 298.96 156.234 299.284 157.266 299.284C158.802 299.284 159.87 298.636 160.47 297.34H167.022C166.686 298.66 166.074 299.848 165.186 300.904C164.322 301.96 163.23 302.788 161.91 303.388C160.59 303.988 159.114 304.288 157.482 304.288C155.514 304.288 153.762 303.868 152.226 303.028C150.69 302.188 149.49 300.988 148.626 299.428C147.762 297.868 147.33 296.044 147.33 293.956C147.33 291.868 147.75 290.044 148.59 288.484C149.454 286.924 150.654 285.724 152.19 284.884C153.726 284.044 155.49 283.624 157.482 283.624C159.426 283.624 161.154 284.032 162.666 284.848C164.178 285.664 165.354 286.828 166.194 288.34C167.058 289.852 167.49 291.616 167.49 293.632ZM161.19 292.012C161.19 290.956 160.83 290.116 160.11 289.492C159.39 288.868 158.49 288.556 157.41 288.556C156.378 288.556 155.502 288.856 154.782 289.456C154.086 290.056 153.654 290.908 153.486 292.012H161.19ZM169.514 293.956C169.514 291.868 169.934 290.044 170.774 288.484C171.638 286.924 172.826 285.724 174.338 284.884C175.874 284.044 177.626 283.624 179.594 283.624C182.114 283.624 184.214 284.284 185.894 285.604C187.598 286.924 188.714 288.784 189.242 291.184H182.69C182.138 289.648 181.07 288.88 179.486 288.88C178.358 288.88 177.458 289.324 176.786 290.212C176.114 291.076 175.778 292.324 175.778 293.956C175.778 295.588 176.114 296.848 176.786 297.736C177.458 298.6 178.358 299.032 179.486 299.032C181.07 299.032 182.138 298.264 182.69 296.728H189.242C188.714 299.08 187.598 300.928 185.894 302.272C184.19 303.616 182.09 304.288 179.594 304.288C177.626 304.288 175.874 303.868 174.338 303.028C172.826 302.188 171.638 300.988 170.774 299.428C169.934 297.868 169.514 296.044 169.514 293.956ZM195.631 281.824C194.551 281.824 193.663 281.512 192.967 280.888C192.295 280.24 191.959 279.448 191.959 278.512C191.959 277.552 192.295 276.76 192.967 276.136C193.663 275.488 194.551 275.164 195.631 275.164C196.687 275.164 197.551 275.488 198.223 276.136C198.919 276.76 199.267 277.552 199.267 278.512C199.267 279.448 198.919 280.24 198.223 280.888C197.551 281.512 196.687 281.824 195.631 281.824ZM198.691 283.912V304H192.535V283.912H198.691ZM222.088 293.632C222.088 294.208 222.052 294.808 221.98 295.432H208.048C208.144 296.68 208.54 297.64 209.236 298.312C209.956 298.96 210.832 299.284 211.864 299.284C213.4 299.284 214.468 298.636 215.068 297.34H221.62C221.284 298.66 220.672 299.848 219.784 300.904C218.92 301.96 217.828 302.788 216.508 303.388C215.188 303.988 213.712 304.288 212.08 304.288C210.112 304.288 208.36 303.868 206.824 303.028C205.288 302.188 204.088 300.988 203.224 299.428C202.36 297.868 201.928 296.044 201.928 293.956C201.928 291.868 202.348 290.044 203.188 288.484C204.052 286.924 205.252 285.724 206.788 284.884C208.324 284.044 210.088 283.624 212.08 283.624C214.024 283.624 215.752 284.032 217.264 284.848C218.776 285.664 219.952 286.828 220.792 288.34C221.656 289.852 222.088 291.616 222.088 293.632ZM215.788 292.012C215.788 290.956 215.428 290.116 214.708 289.492C213.988 288.868 213.088 288.556 212.008 288.556C210.976 288.556 210.1 288.856 209.38 289.456C208.684 290.056 208.252 290.908 208.084 292.012H215.788ZM231.492 286.756C232.092 285.82 232.92 285.064 233.976 284.488C235.032 283.912 236.268 283.624 237.684 283.624C239.34 283.624 240.84 284.044 242.184 284.884C243.528 285.724 244.584 286.924 245.352 288.484C246.144 290.044 246.54 291.856 246.54 293.92C246.54 295.984 246.144 297.808 245.352 299.392C244.584 300.952 243.528 302.164 242.184 303.028C240.84 303.868 239.34 304.288 237.684 304.288C236.292 304.288 235.056 304 233.976 303.424C232.92 302.848 232.092 302.104 231.492 301.192V313.576H225.336V283.912H231.492V286.756ZM240.276 293.92C240.276 292.384 239.844 291.184 238.98 290.32C238.14 289.432 237.096 288.988 235.848 288.988C234.624 288.988 233.58 289.432 232.716 290.32C231.876 291.208 231.456 292.42 231.456 293.956C231.456 295.492 231.876 296.704 232.716 297.592C233.58 298.48 234.624 298.924 235.848 298.924C237.072 298.924 238.116 298.48 238.98 297.592C239.844 296.68 240.276 295.456 240.276 293.92ZM260.965 298.78V304H257.833C255.601 304 253.861 303.46 252.613 302.38C251.365 301.276 250.741 299.488 250.741 297.016V289.024H248.293V283.912H250.741V279.016H256.897V283.912H260.929V289.024H256.897V297.088C256.897 297.688 257.041 298.12 257.329 298.384C257.617 298.648 258.097 298.78 258.769 298.78H260.965ZM107.358 340.72C106.902 339.88 106.242 339.244 105.378 338.812C104.538 338.356 103.542 338.128 102.39 338.128C100.398 338.128 98.8016 338.788 97.6016 340.108C96.4016 341.404 95.8016 343.144 95.8016 345.328C95.8016 347.656 96.4256 349.48 97.6736 350.8C98.9456 352.096 100.686 352.744 102.894 352.744C104.406 352.744 105.678 352.36 106.71 351.592C107.766 350.824 108.534 349.72 109.014 348.28H101.202V343.744H114.594V349.468C114.138 351.004 113.358 352.432 112.254 353.752C111.174 355.072 109.794 356.14 108.114 356.956C106.434 357.772 104.538 358.18 102.426 358.18C99.9296 358.18 97.6976 357.64 95.7296 356.56C93.7856 355.456 92.2616 353.932 91.1576 351.988C90.0776 350.044 89.5376 347.824 89.5376 345.328C89.5376 342.832 90.0776 340.612 91.1576 338.668C92.2616 336.7 93.7856 335.176 95.7296 334.096C97.6736 332.992 99.8936 332.44 102.39 332.44C105.414 332.44 107.958 333.172 110.022 334.636C112.11 336.1 113.49 338.128 114.162 340.72H107.358ZM136.939 347.632C136.939 348.208 136.903 348.808 136.831 349.432H122.899C122.995 350.68 123.391 351.64 124.087 352.312C124.807 352.96 125.683 353.284 126.715 353.284C128.251 353.284 129.319 352.636 129.919 351.34H136.471C136.135 352.66 135.523 353.848 134.635 354.904C133.771 355.96 132.679 356.788 131.359 357.388C130.039 357.988 128.563 358.288 126.931 358.288C124.963 358.288 123.211 357.868 121.675 357.028C120.139 356.188 118.939 354.988 118.075 353.428C117.211 351.868 116.779 350.044 116.779 347.956C116.779 345.868 117.199 344.044 118.039 342.484C118.903 340.924 120.103 339.724 121.639 338.884C123.175 338.044 124.939 337.624 126.931 337.624C128.875 337.624 130.603 338.032 132.115 338.848C133.627 339.664 134.803 340.828 135.643 342.34C136.507 343.852 136.939 345.616 136.939 347.632ZM130.639 346.012C130.639 344.956 130.279 344.116 129.559 343.492C128.839 342.868 127.939 342.556 126.859 342.556C125.827 342.556 124.951 342.856 124.231 343.456C123.535 344.056 123.103 344.908 122.935 346.012H130.639ZM152.427 337.696C154.779 337.696 156.651 338.464 158.043 340C159.459 341.512 160.167 343.6 160.167 346.264V358H154.047V347.092C154.047 345.748 153.699 344.704 153.003 343.96C152.307 343.216 151.371 342.844 150.195 342.844C149.019 342.844 148.083 343.216 147.387 343.96C146.691 344.704 146.343 345.748 146.343 347.092V358H140.187V337.912H146.343V340.576C146.967 339.688 147.807 338.992 148.863 338.488C149.919 337.96 151.107 337.696 152.427 337.696ZM183.381 347.632C183.381 348.208 183.345 348.808 183.273 349.432H169.341C169.437 350.68 169.833 351.64 170.529 352.312C171.249 352.96 172.125 353.284 173.157 353.284C174.693 353.284 175.761 352.636 176.361 351.34H182.913C182.577 352.66 181.965 353.848 181.077 354.904C180.213 355.96 179.121 356.788 177.801 357.388C176.481 357.988 175.005 358.288 173.373 358.288C171.405 358.288 169.653 357.868 168.117 357.028C166.581 356.188 165.381 354.988 164.517 353.428C163.653 351.868 163.221 350.044 163.221 347.956C163.221 345.868 163.641 344.044 164.481 342.484C165.345 340.924 166.545 339.724 168.081 338.884C169.617 338.044 171.381 337.624 173.373 337.624C175.317 337.624 177.045 338.032 178.557 338.848C180.069 339.664 181.245 340.828 182.085 342.34C182.949 343.852 183.381 345.616 183.381 347.632ZM177.081 346.012C177.081 344.956 176.721 344.116 176.001 343.492C175.281 342.868 174.381 342.556 173.301 342.556C172.269 342.556 171.393 342.856 170.673 343.456C169.977 344.056 169.545 344.908 169.377 346.012H177.081ZM192.784 341.26C193.504 340.156 194.404 339.292 195.484 338.668C196.564 338.02 197.764 337.696 199.084 337.696V344.212H197.392C195.856 344.212 194.704 344.548 193.936 345.22C193.168 345.868 192.784 347.02 192.784 348.676V358H186.628V337.912H192.784V341.26ZM200.803 347.92C200.803 345.856 201.187 344.044 201.955 342.484C202.747 340.924 203.815 339.724 205.159 338.884C206.503 338.044 208.003 337.624 209.659 337.624C211.075 337.624 212.311 337.912 213.367 338.488C214.447 339.064 215.275 339.82 215.851 340.756V337.912H222.007V358H215.851V355.156C215.251 356.092 214.411 356.848 213.331 357.424C212.275 358 211.039 358.288 209.623 358.288C207.991 358.288 206.503 357.868 205.159 357.028C203.815 356.164 202.747 354.952 201.955 353.392C201.187 351.808 200.803 349.984 200.803 347.92ZM215.851 347.956C215.851 346.42 215.419 345.208 214.555 344.32C213.715 343.432 212.683 342.988 211.459 342.988C210.235 342.988 209.191 343.432 208.327 344.32C207.487 345.184 207.067 346.384 207.067 347.92C207.067 349.456 207.487 350.68 208.327 351.592C209.191 352.48 210.235 352.924 211.459 352.924C212.683 352.924 213.715 352.48 214.555 351.592C215.419 350.704 215.851 349.492 215.851 347.956ZM237.657 352.78V358H234.525C232.293 358 230.553 357.46 229.305 356.38C228.057 355.276 227.433 353.488 227.433 351.016V343.024H224.985V337.912H227.433V333.016H233.589V337.912H237.621V343.024H233.589V351.088C233.589 351.688 233.733 352.12 234.021 352.384C234.309 352.648 234.789 352.78 235.461 352.78H237.657ZM244.182 335.824C243.102 335.824 242.214 335.512 241.518 334.888C240.846 334.24 240.51 333.448 240.51 332.512C240.51 331.552 240.846 330.76 241.518 330.136C242.214 329.488 243.102 329.164 244.182 329.164C245.238 329.164 246.102 329.488 246.774 330.136C247.47 330.76 247.818 331.552 247.818 332.512C247.818 333.448 247.47 334.24 246.774 334.888C246.102 335.512 245.238 335.824 244.182 335.824ZM247.242 337.912V358H241.086V337.912H247.242ZM260.847 358.288C258.879 358.288 257.103 357.868 255.519 357.028C253.959 356.188 252.723 354.988 251.811 353.428C250.923 351.868 250.479 350.044 250.479 347.956C250.479 345.892 250.935 344.08 251.847 342.52C252.759 340.936 254.007 339.724 255.591 338.884C257.175 338.044 258.951 337.624 260.919 337.624C262.887 337.624 264.663 338.044 266.247 338.884C267.831 339.724 269.079 340.936 269.991 342.52C270.903 344.08 271.359 345.892 271.359 347.956C271.359 350.02 270.891 351.844 269.955 353.428C269.043 354.988 267.783 356.188 266.175 357.028C264.591 357.868 262.815 358.288 260.847 358.288ZM260.847 352.96C262.023 352.96 263.019 352.528 263.835 351.664C264.675 350.8 265.095 349.564 265.095 347.956C265.095 346.348 264.687 345.112 263.871 344.248C263.079 343.384 262.095 342.952 260.919 342.952C259.719 342.952 258.723 343.384 257.931 344.248C257.139 345.088 256.743 346.324 256.743 347.956C256.743 349.564 257.127 350.8 257.895 351.664C258.687 352.528 259.671 352.96 260.847 352.96ZM286.865 337.696C289.217 337.696 291.089 338.464 292.481 340C293.897 341.512 294.605 343.6 294.605 346.264V358H288.485V347.092C288.485 345.748 288.137 344.704 287.441 343.96C286.745 343.216 285.809 342.844 284.633 342.844C283.457 342.844 282.521 343.216 281.825 343.96C281.129 344.704 280.781 345.748 280.781 347.092V358H274.625V337.912H280.781V340.576C281.405 339.688 282.245 338.992 283.301 338.488C284.357 337.96 285.545 337.696 286.865 337.696Z" fill="black"/>
<path d="M253.429 45.3144L231.42 32.6315L209.41 45.3144L187.401 32.6315L165.392 45.314L137.079 29V198.064H103.259V220.786C103.259 233.587 113.672 244 126.473 244H258.528C271.328 244 281.742 233.587 281.742 220.786V29L253.429 45.3144ZM126.473 231.393C120.624 231.393 115.866 226.635 115.866 220.786V210.671H235.314V220.786C235.314 224.605 236.241 228.212 237.881 231.393H126.473ZM258.527 231.393C252.679 231.393 247.921 226.635 247.921 220.786V198.064H149.686V50.8141L165.392 59.8638L187.401 47.1822L209.41 59.8638L231.42 47.1818L253.429 59.8638L269.135 50.8141V220.786C269.135 226.635 264.376 231.393 258.527 231.393Z" fill="black"/>
<path d="M256.526 85.8952H162.293V98.5021H256.526V85.8952Z" fill="black"/>
<path d="M256.526 109.937H162.293V122.543H256.526V109.937Z" fill="black"/>
<path d="M209.41 133.978H162.293V146.585H209.41V133.978Z" fill="black"/>
</svg>
